<svg width="48" height="48" viewBox="0 0 48 48" fill="none" xmlns="http://www.w3.org/2000/svg">
<rect width="48" height="48" rx="24" fill="white"/>
<g clip-path="url(#clip0_1_2)">
<path d="M41.7319 20.728C39.8815 10.2039 29.1376 3.64186 18.9176 6.79328C11.1788 9.18014 5.95354 16.223 6.00013 24.3148C6.0306 29.3848 7.86614 33.7524 11.459 37.335C13.4426 39.3133 15.8391 39.6944 18.4535 38.8361C19.5711 38.4687 20.0173 37.7329 19.6589 36.6242C19.3722 35.7336 18.9588 34.8472 18.4254 34.0821C17.7391 33.0947 16.8832 32.2262 16.0887 31.3153C14.8607 29.9075 13.8972 28.3449 13.4014 26.5321C11.6143 19.9993 16.0977 13.1893 22.8121 12.2222C26.9855 11.6202 30.7163 12.4928 33.7059 15.6227C39.587 21.781 38.0435 30.5281 32.6803 35.1059C32.1098 35.5933 31.5054 36.0419 30.8244 36.583C38.1355 33.4633 41.3168 22.3485 35.1024 15.2429C35.2045 15.3348 35.318 15.4149 35.407 15.5182C37.4582 17.8931 38.5793 20.6599 38.8063 23.7796C38.9825 26.1904 38.3344 28.444 37.3728 30.6201C35.5898 34.6567 32.7711 37.6086 28.4734 38.949C26.083 39.695 23.6238 39.9387 21.1241 39.75C20.8929 39.7321 20.6612 39.7476 20.43 39.7476C20.4276 39.8354 20.4246 39.9226 20.4222 40.0092C21.8916 40.1179 23.361 40.226 24.7462 40.3294C24.4015 40.3801 23.9733 40.444 23.5462 40.508C26.5309 40.6639 29.315 39.9328 31.9617 38.6103C29.0534 40.3807 25.856 40.9685 22.4937 40.9661C23.5115 41.0975 24.5204 41.1549 25.5215 41.082C26.5339 41.0079 27.5368 40.8036 28.5445 40.6573C28.5534 40.7069 28.5636 40.757 28.5726 40.8078C27.4514 41.0193 26.3302 41.2325 25.2091 41.4457C25.2103 41.5007 25.2115 41.5556 25.2115 41.61C25.4665 41.61 25.7282 41.6494 25.9743 41.6022C27.136 41.3776 28.3235 41.2259 29.4488 40.8741C37.9981 38.2035 43.2766 29.5156 41.7307 20.728H41.7319ZM37.8393 33.1371C40.9984 27.4203 41.1472 21.6592 38.1941 15.701C41.4148 20.1068 42.0001 27.4836 37.8393 33.1371Z" fill="url(#paint0_linear_1_2)"/>
</g>
<defs>
<linearGradient id="paint0_linear_1_2" x1="36.6978" y1="7.12479" x2="12.5485" y2="39.0965" gradientUnits="userSpaceOnUse">
<stop stop-color="#2A4292"/>
<stop offset="0.14" stop-color="#2A58A3"/>
<stop offset="0.38" stop-color="#2A7ABD"/>
<stop offset="0.61" stop-color="#2A93CF"/>
<stop offset="0.82" stop-color="#2AA1DB"/>
<stop offset="1" stop-color="#2AA7DF"/>
</linearGradient>
<clipPath id="clip0_1_2">
<rect width="36" height="35.6261" fill="white" transform="translate(6 6)"/>
</clipPath>
</defs>
</svg>
