<?xml version="1.0" encoding="UTF-8"?>
<svg id="Layer_2" data-name="Layer 2" xmlns="http://www.w3.org/2000/svg" xmlns:xlink="http://www.w3.org/1999/xlink" viewBox="0 0 602.7 596.44">
  <defs>
    <style>
      .cls-1 {
        fill: url(#linear-gradient);
        stroke-width: 0px;
      }
    </style>
    <linearGradient id="linear-gradient" x1="513.93" y1="18.83" x2="109.63" y2="554.09" gradientUnits="userSpaceOnUse">
      <stop offset="0" stop-color="#2a4292"/>
      <stop offset=".14" stop-color="#2a58a3"/>
      <stop offset=".38" stop-color="#2a7abd"/>
      <stop offset=".61" stop-color="#2a93cf"/>
      <stop offset=".82" stop-color="#2aa1db"/>
      <stop offset="1" stop-color="#2aa7df"/>
    </linearGradient>
  </defs>
  <g id="Layer_1-2" data-name="Layer 1">
    <path class="cls-1" d="m598.21,246.57C567.23,70.38,387.36-39.48,216.26,13.28,86.7,53.24-.78,171.15,0,306.62c.51,84.88,31.24,158,91.39,217.98,33.21,33.12,73.33,39.5,117.1,25.13,18.71-6.15,26.18-18.47,20.18-37.03-4.8-14.91-11.72-29.75-20.65-42.56-11.49-16.53-25.82-31.07-39.12-46.32-20.56-23.57-36.69-49.73-44.99-80.08-29.92-109.37,45.14-223.38,157.55-239.57,69.87-10.08,132.33,4.53,182.38,56.93,98.46,103.1,72.62,249.54-17.17,326.18-9.55,8.16-19.67,15.67-31.07,24.73,122.4-52.23,175.66-238.31,71.62-357.27,1.71,1.54,3.61,2.88,5.1,4.61,34.34,39.76,53.11,86.08,56.91,138.31,2.95,40.36-7.9,78.09-24,114.52-29.85,67.58-77.04,117-148.99,139.44-40.02,12.49-81.19,16.57-123.04,13.41-3.87-.3-7.75-.04-11.62-.04-.04,1.47-.09,2.93-.13,4.38,24.6,1.82,49.2,3.63,72.39,5.36-5.77.85-12.94,1.92-20.09,2.99,49.97,2.61,96.58-9.63,140.89-31.77-48.69,29.64-102.22,39.48-158.51,39.44,17.04,2.2,33.93,3.16,50.69,1.94,16.95-1.24,33.74-4.66,50.61-7.11.15.83.32,1.67.47,2.52-18.77,3.54-37.54,7.11-56.31,10.68.02.92.04,1.84.04,2.75,4.27,0,8.65.66,12.77-.13,19.45-3.76,39.33-6.3,58.17-12.19,143.13-44.71,231.5-190.16,205.62-337.28Zm-65.17,207.75c52.89-95.71,55.38-192.16,5.94-291.91,53.92,73.76,63.72,197.26-5.94,291.91Z"/>
  </g>
</svg>