<svg width="3898" height="700" viewBox="0 0 3898 700" fill="none" xmlns="http://www.w3.org/2000/svg">
<g clip-path="url(#clip0_105_9)">
<g clip-path="url(#clip1_105_9)">
<path d="M697.018 291.114C661.698 90.2402 456.628 -35.0109 261.558 25.1406C113.847 70.699 14.1108 205.128 15 359.577C15.5815 456.348 50.6167 539.712 119.194 608.095C157.056 645.855 202.797 653.129 252.699 636.746C274.03 629.734 282.547 615.689 275.706 594.528C270.234 577.529 262.344 560.61 252.163 546.006C239.063 527.16 222.726 510.583 207.563 493.196C184.122 466.324 165.732 436.499 156.27 401.897C122.158 277.205 207.734 147.222 335.892 128.764C415.551 117.272 486.761 133.929 543.823 193.67C656.077 311.214 626.617 478.17 524.248 565.547C513.36 574.85 501.822 583.412 488.825 593.742C628.373 534.194 689.094 322.045 570.479 186.419C572.428 188.175 574.594 189.702 576.293 191.675C615.444 237.005 636.844 289.814 641.176 349.362C644.539 395.376 632.169 438.392 613.814 479.926C579.782 556.973 525.981 613.317 443.951 638.901C398.324 653.141 351.386 657.792 303.673 654.19C299.261 653.848 294.837 654.144 290.425 654.144C290.379 655.82 290.322 657.484 290.277 659.138C318.323 661.213 346.37 663.276 372.808 665.249C366.23 666.218 358.056 667.438 349.904 668.657C406.875 671.633 460.015 657.678 510.532 632.437C455.021 666.229 393.991 677.448 329.815 677.402C349.243 679.91 368.499 681.005 387.607 679.614C406.932 678.2 426.074 674.301 445.307 671.508C445.478 672.454 445.672 673.412 445.843 674.381C424.443 678.417 403.044 682.487 381.644 686.557C381.667 687.606 381.69 688.655 381.69 689.692C386.558 689.692 391.552 690.445 396.249 689.544C418.424 685.257 441.089 682.361 462.568 675.646C625.751 624.672 726.501 458.845 696.995 291.114H697.018ZM622.718 527.969C683.018 418.851 685.857 308.888 629.49 195.163C690.964 279.257 702.137 420.059 622.718 527.969Z" fill="url(#paint0_linear_105_9)"/>
</g>
<path d="M1048.6 560V343.4L1016.2 487.4H1003C977.8 487.4 973 462.2 970.6 453.2L945.4 343.4V560H902.8V140H929.2C946 140 948.4 155.6 948.4 155.6L998.2 396.8L1045.6 155C1046.2 153.2 1049.2 140 1064.8 140H1091.2V560H1048.6ZM1357.67 517.4H1447.67C1442.87 528.2 1435.67 545 1433.87 548.6C1430.87 554 1424.27 560 1410.47 560H1314.47V152C1315.07 145.4 1320.47 140 1327.67 140H1439.87L1425.47 171.2C1423.07 176.6 1416.47 183.2 1402.67 183.2H1367.87C1361.87 183.2 1357.67 187.4 1357.67 193.4V318.2H1422.47C1417.67 329 1410.47 346.4 1408.67 350C1405.67 355.4 1399.67 361.4 1385.87 361.4H1367.87C1362.47 361.4 1357.67 366.2 1357.67 371.6V517.4ZM1807.44 140L1793.04 171.2C1790.64 176.6 1784.04 182.6 1770.24 182.6H1736.64C1730.64 182.6 1726.44 187.4 1725.84 192.8V560H1695.24C1685.04 560 1683.24 554 1683.24 551V182.6H1622.64V153.2C1622.64 146 1628.64 140 1635.84 140H1807.44ZM2125.92 560H2078.52L2040.72 270.8L2002.92 560H1955.52L2019.12 140H2042.52C2060.52 140 2063.52 151.4 2065.32 162.8L2125.92 560ZM2443.06 231.2C2439.46 233 2422.66 240.8 2411.26 245.6V197C2411.26 183.8 2401.06 173.6 2388.46 173.6C2375.86 173.6 2365.66 183.8 2365.66 197V237.2C2365.66 261.8 2384.26 293.6 2384.26 293.6L2435.86 390.8C2456.86 429.2 2455.06 457.4 2455.06 457.4V510.8C2455.06 540.2 2431.06 564.2 2401.06 564.2H2374.06C2345.26 563 2322.46 539.6 2321.86 510.8V467.6C2321.86 453.8 2328.46 447.2 2333.86 444.2C2337.46 443 2354.86 435.2 2365.66 430.4V503.6C2365.66 516.2 2375.86 526.4 2388.46 526.4C2401.06 526.4 2411.26 516.2 2411.26 503V455C2411.26 430.4 2392.66 398 2392.66 398L2341.06 301.4C2320.06 263 2321.86 234.8 2321.86 234.8V191.6C2321.86 162.2 2345.86 135.8 2375.86 135.8H2402.86C2431.66 136.4 2455.06 162.8 2455.06 191.6V207.8C2455.06 221.6 2448.46 228.2 2443.06 231.2ZM2832.83 140L2818.43 171.2C2816.03 176.6 2809.43 182.6 2795.63 182.6H2762.03C2756.03 182.6 2751.83 187.4 2751.23 192.8V560H2720.63C2710.43 560 2708.63 554 2708.63 551V182.6H2648.03V153.2C2648.03 146 2654.03 140 2661.23 140H2832.83ZM3062.51 135.8H3095.51C3124.31 137 3147.71 160.4 3147.71 189.2V511.4C3147.11 540.2 3124.31 563 3095.51 564.2H3062.51C3033.11 564.2 3009.11 540.2 3008.51 511.4V189.2C3008.51 159.8 3032.51 135.8 3062.51 135.8ZM3074.51 526.4H3081.11C3093.71 526.4 3103.91 516.2 3103.91 503V197C3103.91 183.8 3093.71 173.6 3081.11 173.6H3074.51C3061.91 174.2 3051.71 184.4 3051.71 197V503C3051.71 515.6 3061.91 525.8 3074.51 526.4ZM3459.48 560V406.4C3459.48 386 3448.68 379.4 3437.28 379.4H3414.48V560H3371.28V140H3449.88C3478.68 140 3502.68 163.4 3502.68 192.8V322.4C3502.68 322.4 3504.48 355.4 3487.08 359.6C3503.88 368 3502.68 399.2 3502.68 399.2V560H3459.48ZM3414.48 338.6H3437.28C3448.68 338.6 3459.48 333.8 3459.48 314.6V201.8C3459.48 186.2 3448.68 180.2 3437.28 180.2H3414.48V338.6ZM3792.24 517.4H3882.24C3877.44 528.2 3870.24 545 3868.44 548.6C3865.44 554 3858.84 560 3845.04 560H3749.04V152C3749.64 145.4 3755.04 140 3762.24 140H3874.44L3860.04 171.2C3857.64 176.6 3851.04 183.2 3837.24 183.2H3802.44C3796.44 183.2 3792.24 187.4 3792.24 193.4V318.2H3857.04C3852.24 329 3845.04 346.4 3843.24 350C3840.24 355.4 3834.24 361.4 3820.44 361.4H3802.44C3797.04 361.4 3792.24 366.2 3792.24 371.6V517.4Z" fill="url(#paint1_linear_105_9)"/>
</g>
<defs>
<linearGradient id="paint0_linear_105_9" x1="600.931" y1="31.4682" x2="139.989" y2="641.717" gradientUnits="userSpaceOnUse">
<stop stop-color="#2A4292"/>
<stop offset="0.14" stop-color="#2A58A3"/>
<stop offset="0.38" stop-color="#2A7ABD"/>
<stop offset="0.61" stop-color="#2A93CF"/>
<stop offset="0.82" stop-color="#2AA1DB"/>
<stop offset="1" stop-color="#2AA7DF"/>
</linearGradient>
<linearGradient id="paint1_linear_105_9" x1="2394.5" y1="71" x2="2394.5" y2="569" gradientUnits="userSpaceOnUse">
<stop stop-color="#2A4292"/>
<stop offset="1" stop-color="#2AA7DF"/>
</linearGradient>
<clipPath id="clip0_105_9">
<rect width="3898" height="700" fill="white"/>
</clipPath>
<clipPath id="clip1_105_9">
<rect width="687.137" height="680" fill="white" transform="translate(15 10)"/>
</clipPath>
</defs>
</svg>
